<?xml version="1.0" standalone="no"?>
<!DOCTYPE svg PUBLIC "-//W3C//DTD SVG 20010904//EN"
 "http://www.w3.org/TR/2001/REC-SVG-20010904/DTD/svg10.dtd">
<svg version="1.0" xmlns="http://www.w3.org/2000/svg"
 width="230.000000pt" height="230.000000pt" viewBox="0 0 230.000000 230.000000"
 preserveAspectRatio="xMidYMid meet">
<metadata>
Created by potrace 1.11, written by Peter Selinger 2001-2013
</metadata>
<g transform="translate(0.000000,230.000000) scale(0.100000,-0.100000)"
fill="#000000" stroke="none">
<path d="M905 2229 c-66 -39 -124 -75 -129 -79 -5 -5 53 -114 133 -253 77
-134 141 -247 141 -252 0 -4 -44 -84 -97 -176 l-98 -169 -287 0 -288 0 0 -155
0 -155 288 0 288 0 97 -168 c53 -93 97 -172 97 -177 0 -4 -64 -117 -141 -252
-80 -138 -138 -248 -133 -253 21 -20 238 -140 253 -140 10 0 64 85 156 245
l140 244 288 1 287 0 0 155 0 155 -287 0 -288 1 -95 166 c-52 92 -95 172 -95
178 0 6 43 86 95 178 l95 166 288 1 287 0 0 155 0 155 -287 0 -288 1 -143 249
c-79 138 -147 250 -150 250 -4 -1 -61 -33 -127 -71z"/>
</g>
</svg>
