<?xml version="1.0" encoding="UTF-8" standalone="no"?>
<!-- Created with Inkscape (http://www.inkscape.org/) -->

<svg
   xmlns:dc="http://purl.org/dc/elements/1.1/"
   xmlns:cc="http://creativecommons.org/ns#"
   xmlns:rdf="http://www.w3.org/1999/02/22-rdf-syntax-ns#"
   xmlns:svg="http://www.w3.org/2000/svg"
   xmlns="http://www.w3.org/2000/svg"
   xmlns:sodipodi="http://sodipodi.sourceforge.net/DTD/sodipodi-0.dtd"
   xmlns:inkscape="http://www.inkscape.org/namespaces/inkscape"
   width="744.09448819"
   height="1052.3622047"
   id="svg2"
   version="1.1"
   inkscape:version="0.48.5 r10040"
   inkscape:export-filename="\\nas.sr.lez\profile\dansaj\Pulpit\new_entry.png"
   inkscape:export-xdpi="1.1891774"
   inkscape:export-ydpi="1.1891774"
   sodipodi:docname="new_entry_png.svg">
  <defs
     id="defs4" />
  <sodipodi:namedview
     id="base"
     pagecolor="#ffffff"
     bordercolor="#666666"
     borderopacity="1.0"
     inkscape:pageopacity="0.0"
     inkscape:pageshadow="2"
     inkscape:zoom="0.35"
     inkscape:cx="-198.43432"
     inkscape:cy="520"
     inkscape:document-units="px"
     inkscape:current-layer="layer1-9"
     showgrid="false"
     showguides="true"
     inkscape:guide-bbox="true"
     inkscape:window-width="1280"
     inkscape:window-height="962"
     inkscape:window-x="-8"
     inkscape:window-y="-8"
     inkscape:window-maximized="1">
    <sodipodi:guide
       orientation="1,0"
       position="-585.71429,1571.4286"
       id="guide3810" />
  </sodipodi:namedview>
  <metadata
     id="metadata7">
    <rdf:RDF>
      <cc:Work
         rdf:about="">
        <dc:format>image/svg+xml</dc:format>
        <dc:type
           rdf:resource="http://purl.org/dc/dcmitype/StillImage" />
        <dc:title></dc:title>
      </cc:Work>
    </rdf:RDF>
  </metadata>
  <g
     inkscape:label="Layer 1"
     inkscape:groupmode="layer"
     id="layer1">
    <g
       id="layer1-9"
       inkscape:label="Layer 1"
       transform="translate(280,-91.428576)">
      <path
         sodipodi:type="star"
         style="fill:#ffff00;stroke:#f06500;stroke-width:91.00601231;stroke-linecap:round;stroke-linejoin:round;stroke-miterlimit:4;stroke-opacity:1;stroke-dasharray:none;stroke-dashoffset:0;fill-opacity:1"
         id="path3004"
         sodipodi:sides="5"
         sodipodi:cx="-277.14285"
         sodipodi:cy="100.93361"
         sodipodi:r1="552.0426"
         sodipodi:r2="286.02914"
         sodipodi:arg1="0.93971694"
         sodipodi:arg2="1.5680355"
         inkscape:flatsided="false"
         inkscape:rounded="0"
         inkscape:randomized="0"
         d="m 48.57144,546.64791 -324.92462,-159.68625 -324.03791,161.47794 51.46342,-358.36743 -253.70787,-258.278944 356.73075,-61.797016 167.23783,-321.1031 169.00832,320.17478 357.06653,59.82631 -252.2778747,259.67591 z"
         transform="matrix(1.3185942,0,0,1.3185942,78.09854,342.4132)"
         inkscape:transform-center-x="0.62103525"
         inkscape:transform-center-y="-68.919291"
         inkscape:export-filename="\\nas.sr.lez\profile\dansaj\Pulpit\new_entry.png"
         inkscape:export-xdpi="1.1506062"
         inkscape:export-ydpi="1.1506062" />
      <flowRoot
         inkscape:export-ydpi="1.1484375"
         inkscape:export-xdpi="1.1484375"
         style="font-size:40px;font-style:normal;font-weight:normal;line-height:125%;letter-spacing:0px;word-spacing:0px;fill:#000000;fill-opacity:1;stroke:none;font-family:sans-serif"
         id="flowRoot4687"
         xml:space="preserve"
         transform="translate(0,131.42857)"><flowRegion
           id="flowRegion4689"><rect
             y="129.50507"
             x="-768.57141"
             height="885.71429"
             width="654.28571"
             id="rect4691" /></flowRegion><flowPara
           style="font-size:144px;font-weight:bold"
           id="flowPara4693" /></flowRoot>      <flowRoot
         style="font-size:40px;font-style:normal;font-weight:normal;line-height:125%;letter-spacing:0px;word-spacing:0px;fill:#000000;fill-opacity:1;stroke:none;font-family:sans-serif"
         id="flowRoot5268"
         xml:space="preserve"><flowRegion
           id="flowRegion5270"><rect
             y="-121.92351"
             x="-1022.8571"
             height="1268.5714"
             width="1008.5714"
             id="rect5272" /></flowRegion><flowPara
           id="flowPara5274" /></flowRoot>      <path
         sodipodi:type="arc"
         id="path3784"
         style="fill:#000000;stroke:none"
         sodipodi:cx="-722.85712"
         sodipodi:cy="266.64789"
         sodipodi:rx="1.5"
         sodipodi:ry="1.5"
         d="m -721.35712,266.64789 c 0,0.82843 -0.67157,1.5 -1.5,1.5 -0.82842,0 -1.5,-0.67157 -1.5,-1.5 0,-0.82843 0.67158,-1.5 1.5,-1.5 0.82843,0 1.5,0.67157 1.5,1.5 z"
         inkscape:export-filename="\\nas.sr.lez\profile\dansaj\Pulpit\new_entry.png"
         inkscape:export-xdpi="1.1161932"
         inkscape:export-ydpi="1.1161932"
         transform="translate(0,48.571429)" />
      <path
         sodipodi:type="arc"
         id="path3786"
         style="fill:#000000;stroke:none"
         sodipodi:cx="-191.42857"
         sodipodi:cy="272.36218"
         sodipodi:rx="1.5"
         sodipodi:ry="1.5"
         d="m -189.92857,272.36218 c 0,0.82843 -0.67158,1.5 -1.5,1.5 -0.82843,0 -1.5,-0.67157 -1.5,-1.5 0,-0.82842 0.67157,-1.5 1.5,-1.5 0.82842,0 1.5,0.67158 1.5,1.5 z"
         inkscape:export-filename="\\nas.sr.lez\profile\dansaj\Pulpit\new_entry.png"
         inkscape:export-xdpi="1.1161932"
         inkscape:export-ydpi="1.1161932" />
      <path
         sodipodi:type="arc"
         id="path3792"
         style="fill:#000000;stroke:none"
         sodipodi:cx="-691.42859"
         sodipodi:cy="243.79076"
         sodipodi:rx="1.5"
         sodipodi:ry="1.5"
         d="m -689.92859,243.79076 c 0,0.82842 -0.67157,1.5 -1.5,1.5 -0.82843,0 -1.5,-0.67158 -1.5,-1.5 0,-0.82843 0.67157,-1.5 1.5,-1.5 0.82843,0 1.5,0.67157 1.5,1.5 z"
         inkscape:export-filename="\\nas.sr.lez\profile\dansaj\Pulpit\new_entry.png"
         inkscape:export-xdpi="1.1161932"
         inkscape:export-ydpi="1.1161932"
         transform="translate(0,48.571429)" />
      <path
         sodipodi:type="arc"
         id="path3794"
         style="fill:#000000;stroke:none"
         sodipodi:cx="-177.14285"
         sodipodi:cy="249.50504"
         sodipodi:rx="1.5"
         sodipodi:ry="1.5"
         d="m -175.64285,249.50504 c 0,0.82842 -0.67158,1.5 -1.5,1.5 -0.82843,0 -1.5,-0.67158 -1.5,-1.5 0,-0.82843 0.67157,-1.5 1.5,-1.5 0.82842,0 1.5,0.67157 1.5,1.5 z"
         inkscape:export-filename="\\nas.sr.lez\profile\dansaj\Pulpit\new_entry.png"
         inkscape:export-xdpi="1.1161932"
         inkscape:export-ydpi="1.1161932" />
      <path
         sodipodi:type="arc"
         id="path3796"
         style="fill:#000000;stroke:none"
         sodipodi:cx="-177.14285"
         sodipodi:cy="249.50504"
         sodipodi:rx="1.5"
         sodipodi:ry="1.5"
         d="m -175.64285,249.50504 c 0,0.82842 -0.67158,1.5 -1.5,1.5 -0.82843,0 -1.5,-0.67158 -1.5,-1.5 0,-0.82843 0.67157,-1.5 1.5,-1.5 0.82842,0 1.5,0.67157 1.5,1.5 z"
         inkscape:export-filename="\\nas.sr.lez\profile\dansaj\Pulpit\new_entry.png"
         inkscape:export-xdpi="1.1161932"
         inkscape:export-ydpi="1.1161932" />
      <path
         sodipodi:type="arc"
         id="path3798"
         style="fill:#000000;stroke:none"
         sodipodi:cx="-177.14285"
         sodipodi:cy="249.50504"
         sodipodi:rx="1.5"
         sodipodi:ry="1.5"
         d="m -175.64285,249.50504 c 0,0.82842 -0.67158,1.5 -1.5,1.5 -0.82843,0 -1.5,-0.67158 -1.5,-1.5 0,-0.82843 0.67157,-1.5 1.5,-1.5 0.82842,0 1.5,0.67157 1.5,1.5 z"
         inkscape:export-filename="\\nas.sr.lez\profile\dansaj\Pulpit\new_entry.png"
         inkscape:export-xdpi="1.1161932"
         inkscape:export-ydpi="1.1161932" />
      <path
         sodipodi:type="arc"
         id="path3800"
         style="fill:#000000;stroke:none"
         sodipodi:cx="-597.14288"
         sodipodi:cy="246.6479"
         sodipodi:rx="1.5"
         sodipodi:ry="1.5"
         d="m -595.64288,246.6479 c 0,0.82843 -0.67158,1.5 -1.5,1.5 -0.82843,0 -1.5,-0.67157 -1.5,-1.5 0,-0.82842 0.67157,-1.5 1.5,-1.5 0.82842,0 1.5,0.67158 1.5,1.5 z"
         inkscape:export-filename="\\nas.sr.lez\profile\dansaj\Pulpit\new_entry.png"
         inkscape:export-xdpi="1.1161932"
         inkscape:export-ydpi="1.1161932"
         transform="translate(0,48.571429)" />
      <g
         id="g3795">
        <path
           inkscape:export-ydpi="1.1161932"
           inkscape:export-xdpi="1.1161932"
           inkscape:export-filename="\\nas.sr.lez\profile\dansaj\Pulpit\new_entry.png"
           sodipodi:nodetypes="ccsccsscc"
           inkscape:connector-curvature="0"
           id="rect4136"
           d="m -845.71428,38.076489 759.99999,0 c 0,0 -148.57142,3.955623 -148.57142,197.142841 0,49.10936 0,460.84877 0,654.28572 0,193.43695 -134.28572,168.57145 -134.28572,168.57145 l -759.99997,0 c 0,0 134.28569,25.4534 134.28569,-168.57145 0,-194.02481 0,-607.5278 0,-654.28572 0,-198.901503 148.57143,-197.142841 148.57143,-197.142841 z"
           style="fill:#ffffff;fill-opacity:1;stroke:#000000;stroke-width:60;stroke-linecap:round;stroke-linejoin:round;stroke-miterlimit:4;stroke-opacity:1;stroke-dasharray:none" />
        <path
           inkscape:export-ydpi="1.1161932"
           inkscape:export-xdpi="1.1161932"
           inkscape:export-filename="\\nas.sr.lez\profile\dansaj\Pulpit\new_entry.png"
           inkscape:connector-curvature="0"
           id="path3806"
           d="m -865.71429,280.93362 c 156.84749,0 328.63809,0 477.70335,0"
           style="fill:none;stroke:#000000;stroke-width:50;stroke-linecap:butt;stroke-linejoin:miter;stroke-miterlimit:4;stroke-opacity:1;stroke-dasharray:none" />
        <path
           inkscape:export-ydpi="1.1161932"
           inkscape:export-xdpi="1.1161932"
           inkscape:export-filename="\\nas.sr.lez\profile\dansaj\Pulpit\new_entry.png"
           style="fill:none;stroke:#000000;stroke-width:50;stroke-linecap:butt;stroke-linejoin:miter;stroke-miterlimit:4;stroke-opacity:1;stroke-dasharray:none"
           d="m -865.71429,435.21933 c 156.8475,0 328.6381,0 477.70335,0"
           id="path3814"
           inkscape:connector-curvature="0" />
        <path
           inkscape:export-ydpi="1.1161932"
           inkscape:export-xdpi="1.1161932"
           inkscape:export-filename="\\nas.sr.lez\profile\dansaj\Pulpit\new_entry.png"
           inkscape:connector-curvature="0"
           id="path3816"
           d="m -865.71429,609.50504 c 156.8475,0 328.6381,0 477.70335,0"
           style="fill:none;stroke:#000000;stroke-width:50;stroke-linecap:butt;stroke-linejoin:miter;stroke-miterlimit:4;stroke-opacity:1;stroke-dasharray:none" />
        <path
           inkscape:export-ydpi="1.1161932"
           inkscape:export-xdpi="1.1161932"
           inkscape:export-filename="\\nas.sr.lez\profile\dansaj\Pulpit\new_entry.png"
           style="fill:none;stroke:#000000;stroke-width:50;stroke-linecap:butt;stroke-linejoin:miter;stroke-miterlimit:4;stroke-opacity:1;stroke-dasharray:none"
           d="m -865.71429,789.50504 c 156.8475,0 328.6381,0 477.70335,0"
           id="path3818"
           inkscape:connector-curvature="0" />
      </g>
    </g>
  </g>
</svg>
